<svg width="50" height="42" viewBox="0 0 50 42" fill="none" xmlns="http://www.w3.org/2000/svg">
<path d="M24.9192 0.000962291C18.0737 -0.0526609 10.0501 2.12733 0.399665 8.41755C0.175927 8.52851 0.0988191 8.59043 0.0138112 8.66916C-0.0209503 10.8265 0.0193942 12.9859 0.0316134 15.1437C4.36459 17.6156 10.6317 19.6186 14.9759 20.5394C10.7618 25.9099 8.04921 31.5534 6.044 37.0731L5.84217 37.6284L11.0655 41.8746L11.6116 40.8467C14.7633 34.9171 17.4251 28.8859 21.6011 23.3532C22.3837 23.9613 23.3072 24.5204 24.468 24.4401C25.0427 24.4004 25.4782 24.1939 25.8343 23.926L26.2383 23.9414C27.4176 23.9863 28.5689 23.9082 29.6142 23.5712C29.9109 23.4756 30.1976 23.3554 30.471 23.212C34.9986 28.2132 37.3238 35.1042 38.929 40.5511L39.3561 42L45.4457 36.4286L45.2143 35.8874C43.2204 31.2285 41.248 25.0954 37.2677 20.2753C41.5023 19.221 45.3507 17.607 48.6785 15.5747C49.7993 14.89 49.231 15.238 50 14.7331L49.8396 8.70266C49.3896 8.44343 49.1754 8.34537 48.7734 8.14484C43.352 5.44083 37.2613 1.58338 29.4757 0.371734C27.9698 0.136943 26.4462 0.0130309 24.9192 0.000962291ZM24.8933 1.75207C26.3746 1.76672 27.7945 1.89291 29.162 2.10565C36.2373 3.20683 41.9607 6.69399 47.3689 9.4317C46.3606 9.93408 45.3351 10.406 44.2938 10.8468C39.3269 8.03574 33.9545 5.63032 27.928 4.87325C21.0502 4.00922 13.3789 5.35439 4.72095 10.5584C3.8704 10.1944 3.02961 9.81104 2.19937 9.40875C11.2859 3.62888 18.6381 1.68994 24.8934 1.75207H24.8933ZM24.0607 6.38319C25.2906 6.38612 26.494 6.46729 27.6735 6.61556C32.8649 7.26763 37.6323 9.25335 42.1424 11.7015C38.7647 12.9588 35.308 13.8478 31.7977 14.352C30.5414 13.0153 28.7418 12.4881 26.9682 12.2812L26.3127 12.2047L26.0306 12.7085C25.5466 12.5194 25.0334 12.3223 24.5941 12.1868C24.1373 12.047 23.7441 11.9268 23.2395 11.9437C21.0886 12.0158 19.7401 12.8823 19.0677 13.7717C18.9112 13.9792 18.7775 14.2006 18.6684 14.4327C14.7288 13.9184 10.7626 12.9164 6.80317 11.4029C13.1809 7.75952 18.8593 6.37079 24.0607 6.38319ZM48.0457 11.0658L48.0891 13.8097C44.6165 16.0075 40.5008 17.7307 35.9175 18.7758C35.0397 17.8835 34.074 17.0553 33.0062 16.311C32.9578 16.1827 32.9048 16.0559 32.8472 15.9308C38.0684 15.1051 43.1664 13.4665 48.0457 11.0658ZM1.96046 11.2459C7.43414 13.82 12.9704 15.4289 18.4675 16.134C18.5074 16.2254 18.5522 16.3129 18.6021 16.3963C17.7846 17.2365 16.9974 18.1016 16.2418 18.9902C11.6157 18.1102 6.81676 16.5635 1.94687 14.2247L1.96046 11.2459ZM23.3077 13.7007C23.9821 13.7164 24.6313 14.0625 25.247 14.3093C24.7057 15.6075 24.3873 16.9279 24.3234 18.2588L24.3027 18.2477C23.1932 17.6485 22.1449 17.0281 21.3774 16.4813C20.7077 16.0043 20.3562 15.5663 20.2733 15.4821C20.7768 13.9765 22.3906 13.6927 23.3077 13.7007ZM27.3988 14.1372C28.8689 14.3843 30.0027 14.856 30.7493 15.9886C31.3529 16.9046 31.5057 17.6418 31.4329 18.3891C31.3602 19.1363 31.0264 19.9196 30.517 20.7842C30.1866 21.3449 29.7039 21.6808 28.9917 21.9105C28.4245 22.0933 27.7145 22.18 26.9297 22.1896C25.7779 19.4551 26.0269 16.852 27.3988 14.1372ZM19.9281 17.6654C20.7771 18.2755 21.75 18.8735 22.5438 19.323C16.9673 25.5397 13.8834 32.4387 10.4447 39.0319L8.05163 37.0862C10.5073 30.4758 13.9896 23.8066 19.9281 17.6654ZM33.2845 18.8325C38.4577 23.2852 40.8469 30.3322 43.2263 35.9893L40.3211 38.6475C38.713 33.3732 36.373 26.9716 31.887 22.0545C31.9948 21.9181 32.093 21.7753 32.1808 21.627C32.7015 20.7432 33.1316 19.8281 33.2845 18.8325ZM24.2006 20.2182C24.2789 20.2588 24.3563 20.2975 24.4343 20.3376C24.534 20.9742 24.6961 21.6117 24.9224 22.2489C24.5954 22.5207 24.2822 22.6898 24.3272 22.6868C24.125 22.7007 23.4068 22.3849 22.7324 21.9158C23.2061 21.3385 23.6957 20.7724 24.2006 20.2183V20.2182Z" fill="#0A0A0A"/>
</svg>
